<svg width="24" height="24" viewBox="0 0 24 24" xmlns="http://www.w3.org/2000/svg" fill="none" stroke="currentColor" stroke-width="1.5" stroke-linecap="round" stroke-linejoin="round">
  <!-- Outer fleece cloud -->
  <path d="M12 3C8 3 5 5.5 5 9c0 .5-.5 1-1 1-2 0-3.5 1.5-3.5 3.5 0 2 1.5 3.5 3.5 3.5h16c2.5 0 4.5-2 4.5-4.5 0-2-1.5-3.5-3.5-3.5-1 0-1.5-.5-1.5-1 0-3.5-2.5-6-6-6z"/>
  <!-- Head -->
  <circle cx="12" cy="15" r="3"/>
  <!-- Left eye -->
  <circle cx="10.5" cy="14" r="0.8"/>
  <!-- Right eye -->
  <circle cx="13.5" cy="14" r="0.8"/>
  <!-- Legs -->
  <line x1="10" y1="18" x2="10" y2="21"/>
  <line x1="14" y1="18" x2="14" y2="21"/>
</svg>
