<?xml version="1.0" standalone="no"?>
<!DOCTYPE svg PUBLIC "-//W3C//DTD SVG 20010904//EN"
 "http://www.w3.org/TR/2001/REC-SVG-20010904/DTD/svg10.dtd">
<svg version="1.0" xmlns="http://www.w3.org/2000/svg"
 width="1920.000000pt" height="1920.000000pt" viewBox="0 0 1920.000000 1920.000000"
 preserveAspectRatio="xMidYMid meet">
<metadata>
Created by potrace 1.16, written by Peter Selinger 2001-2019
</metadata>
<g transform="translate(0.000000,1920.000000) scale(0.100000,-0.100000)"
fill="#000000" stroke="none">
<path d="M12770 12920 c-19 -5 -45 -20 -57 -35 l-23 -26 0 -412 0 -412 -753 0
c-898 0 -844 6 -1231 -135 -71 -26 -157 -69 -209 -104 -21 -14 -42 -26 -47
-26 -6 0 -10 -4 -10 -10 0 -5 -5 -10 -10 -10 -12 0 -113 -77 -204 -155 -53
-44 -320 -331 -522 -559 -40 -45 -81 -88 -93 -96 -12 -8 -21 -18 -21 -23 0 -5
-19 -28 -42 -51 -24 -23 -62 -64 -86 -91 -24 -28 -81 -90 -128 -140 -46 -49
-461 -506 -921 -1015 -517 -570 -872 -954 -928 -1002 -238 -206 -534 -364
-845 -452 -269 -76 -289 -78 -1025 -85 l-660 -7 -64 -28 c-122 -53 -197 -120
-251 -226 -43 -86 -60 -155 -60 -251 0 -204 108 -380 285 -464 39 -18 77 -34
85 -35 8 -1 287 -5 620 -7 838 -6 1000 7 1352 107 79 22 152 45 163 50 18 9
56 23 250 95 86 31 183 82 358 186 270 162 439 293 643 501 72 73 542 588
1045 1143 502 556 935 1032 961 1059 26 27 48 51 48 55 0 3 20 26 44 51 141
145 175 181 216 230 48 58 68 79 224 238 84 85 112 107 191 146 166 84 175 85
953 88 l672 3 0 -408 c0 -261 4 -415 10 -428 17 -30 64 -49 126 -49 47 0 66 5
98 27 23 16 43 31 46 34 6 7 230 184 480 379 95 74 243 191 329 260 86 69 167
133 181 142 14 9 37 27 52 40 14 13 37 32 49 43 36 31 322 256 447 351 102 79
112 89 112 119 0 29 -11 41 -127 132 -263 205 -418 327 -429 337 -22 22 -100
86 -131 108 -18 13 -106 81 -195 152 -535 426 -811 640 -848 658 -37 19 -64
21 -120 8z"/>
<path d="M5009 12135 c-3 -2 -21 -5 -40 -6 -18 -1 -65 -17 -104 -35 -260 -122
-362 -445 -225 -714 54 -106 129 -173 251 -226 l64 -28 655 -6 c622 -6 662 -7
785 -29 405 -71 777 -243 1075 -496 79 -67 116 -105 259 -259 l54 -58 66 73
c36 40 89 97 116 126 28 28 63 67 79 85 16 18 62 69 103 113 41 44 93 101 116
126 23 25 80 87 127 138 47 51 87 97 89 102 5 17 -266 284 -389 383 -148 120
-211 163 -397 275 -175 104 -272 155 -358 186 -194 72 -232 86 -250 95 -38 19
-306 91 -408 111 -104 19 -121 21 -332 39 -118 10 -1327 15 -1336 5z"/>
<path d="M12738 9054 c-15 -8 -32 -23 -38 -34 -6 -12 -10 -167 -10 -427 l0
-408 -672 3 c-778 3 -787 4 -953 88 -79 39 -107 61 -191 146 -156 159 -176
180 -224 238 -25 29 -72 82 -105 115 -33 34 -77 81 -98 103 -20 23 -39 42 -41
42 -2 0 -102 -108 -221 -240 -119 -132 -221 -240 -225 -240 -4 0 -11 -9 -16
-19 -5 -11 -54 -68 -108 -126 -145 -154 -140 -129 -43 -232 45 -48 148 -160
229 -248 80 -89 172 -183 204 -211 91 -77 192 -154 204 -154 5 0 10 -4 10 -10
0 -5 4 -10 10 -10 5 0 26 -12 47 -26 52 -35 138 -78 209 -104 173 -63 270 -93
369 -113 108 -22 123 -22 862 -22 l753 0 0 -413 0 -414 28 -28 c36 -35 113
-48 163 -27 35 15 275 200 857 663 89 71 177 139 195 152 31 22 109 86 131
108 11 10 166 132 429 337 116 91 127 103 127 132 0 30 -10 40 -112 119 -125
95 -411 320 -447 351 -12 11 -35 30 -49 43 -15 13 -38 31 -52 40 -14 9 -81 62
-150 118 -69 55 -154 123 -190 151 -120 92 -645 506 -650 512 -3 3 -23 18 -46
34 -33 22 -51 27 -100 27 -32 -1 -71 -7 -86 -16z"/>
</g>
</svg>
